<mxfile host="www.draw.io" modified="2020-03-10T02:58:08.043Z" agent="Mozilla/5.0 (Windows NT 10.0; Win64; x64) AppleWebKit/537.36 (KHTML, like Gecko) Chrome/80.0.3987.132 Safari/537.36" etag="OZ8Rq2f-ZV4LMeaz1O6w" version="12.8.2" type="github">
  <diagram id="4vmw9qc6sN0B8Oa-BUN9" name="Page-1">
    <mxGraphModel dx="2379" dy="763" grid="1" gridSize="10" guides="1" tooltips="1" connect="1" arrows="1" fold="1" page="1" pageScale="1" pageWidth="827" pageHeight="1169" math="0" shadow="0">
      <root>
        <mxCell id="0" />
        <mxCell id="1" parent="0" />
        <mxCell id="EISd4JiYMSwrplZ_3Wii-1" value="" style="rounded=0;whiteSpace=wrap;html=1;strokeColor=#000000;fillColor=#333333;fontFamily=Times New Roman;fontSize=25;" parent="1" vertex="1">
          <mxGeometry x="20" y="180" width="10" height="260" as="geometry" />
        </mxCell>
        <mxCell id="EISd4JiYMSwrplZ_3Wii-2" value="" style="rounded=0;whiteSpace=wrap;html=1;fillColor=#FFFFFF;fontFamily=Times New Roman;fontSize=25;" parent="1" vertex="1">
          <mxGeometry x="50" y="155" width="20" height="310" as="geometry" />
        </mxCell>
        <mxCell id="EISd4JiYMSwrplZ_3Wii-3" value="" style="rounded=0;whiteSpace=wrap;html=1;fillColor=#FFFFFF;fontFamily=Times New Roman;fontSize=25;" parent="1" vertex="1">
          <mxGeometry x="80" y="155" width="10" height="310" as="geometry" />
        </mxCell>
        <mxCell id="EISd4JiYMSwrplZ_3Wii-4" value="" style="rounded=0;whiteSpace=wrap;html=1;fillColor=#E6E6E6;fontFamily=Times New Roman;fontSize=25;" parent="1" vertex="1">
          <mxGeometry x="100" y="210" width="10" height="170" as="geometry" />
        </mxCell>
        <mxCell id="EISd4JiYMSwrplZ_3Wii-5" value="" style="rounded=0;whiteSpace=wrap;html=1;fillColor=#FFFFFF;fontFamily=Times New Roman;fontSize=25;" parent="1" vertex="1">
          <mxGeometry x="120" y="210" width="20" height="170" as="geometry" />
        </mxCell>
        <mxCell id="EISd4JiYMSwrplZ_3Wii-7" value="" style="rounded=0;whiteSpace=wrap;html=1;fillColor=#FFFFFF;fontFamily=Times New Roman;fontSize=25;" parent="1" vertex="1">
          <mxGeometry x="150" y="210" width="20" height="170" as="geometry" />
        </mxCell>
        <mxCell id="EISd4JiYMSwrplZ_3Wii-8" value="" style="rounded=0;whiteSpace=wrap;html=1;fillColor=#E6E6E6;fontFamily=Times New Roman;fontSize=25;" parent="1" vertex="1">
          <mxGeometry x="180" y="240" width="20" height="100" as="geometry" />
        </mxCell>
        <mxCell id="EISd4JiYMSwrplZ_3Wii-9" value="" style="rounded=0;whiteSpace=wrap;html=1;fillColor=#FFFFFF;fontFamily=Times New Roman;fontSize=25;" parent="1" vertex="1">
          <mxGeometry x="210" y="240" width="30" height="100" as="geometry" />
        </mxCell>
        <mxCell id="EISd4JiYMSwrplZ_3Wii-11" value="" style="rounded=0;whiteSpace=wrap;html=1;fillColor=#FFFFFF;fontFamily=Times New Roman;fontSize=25;" parent="1" vertex="1">
          <mxGeometry x="250" y="240" width="30" height="100" as="geometry" />
        </mxCell>
        <mxCell id="EISd4JiYMSwrplZ_3Wii-12" value="" style="rounded=0;whiteSpace=wrap;html=1;fillColor=#FFFFFF;fontFamily=Times New Roman;fontSize=25;" parent="1" vertex="1">
          <mxGeometry x="290" y="240" width="30" height="100" as="geometry" />
        </mxCell>
        <mxCell id="EISd4JiYMSwrplZ_3Wii-50" value="" style="edgeStyle=orthogonalEdgeStyle;rounded=0;orthogonalLoop=1;jettySize=auto;html=1;exitX=0.5;exitY=1;exitDx=0;exitDy=0;fontFamily=Times New Roman;fontSize=25;" parent="1" source="EISd4JiYMSwrplZ_3Wii-13" target="EISd4JiYMSwrplZ_3Wii-49" edge="1">
          <mxGeometry relative="1" as="geometry">
            <mxPoint x="345" y="325" as="sourcePoint" />
          </mxGeometry>
        </mxCell>
        <mxCell id="EISd4JiYMSwrplZ_3Wii-13" value="" style="rounded=0;whiteSpace=wrap;html=1;fillColor=#E6E6E6;fontFamily=Times New Roman;fontSize=25;" parent="1" vertex="1">
          <mxGeometry x="330" y="270" width="30" height="40" as="geometry" />
        </mxCell>
        <mxCell id="EISd4JiYMSwrplZ_3Wii-52" value="" style="edgeStyle=orthogonalEdgeStyle;rounded=0;orthogonalLoop=1;jettySize=auto;html=1;entryX=0;entryY=0.5;entryDx=0;entryDy=0;fontFamily=Times New Roman;fontSize=25;" parent="1" source="EISd4JiYMSwrplZ_3Wii-49" target="EISd4JiYMSwrplZ_3Wii-43" edge="1">
          <mxGeometry relative="1" as="geometry">
            <mxPoint x="411" y="592" as="targetPoint" />
          </mxGeometry>
        </mxCell>
        <mxCell id="EISd4JiYMSwrplZ_3Wii-49" value="" style="rounded=0;whiteSpace=wrap;html=1;fillColor=#FFFFFF;fontFamily=Times New Roman;fontSize=25;" parent="1" vertex="1">
          <mxGeometry x="340" y="557" width="10" height="80" as="geometry" />
        </mxCell>
        <mxCell id="EISd4JiYMSwrplZ_3Wii-48" value="" style="edgeStyle=orthogonalEdgeStyle;rounded=0;orthogonalLoop=1;jettySize=auto;html=1;fontFamily=Times New Roman;fontSize=25;" parent="1" source="EISd4JiYMSwrplZ_3Wii-43" target="EISd4JiYMSwrplZ_3Wii-36" edge="1">
          <mxGeometry relative="1" as="geometry">
            <mxPoint x="440" y="580" as="targetPoint" />
          </mxGeometry>
        </mxCell>
        <mxCell id="EISd4JiYMSwrplZ_3Wii-43" value="" style="rounded=0;whiteSpace=wrap;html=1;fillColor=#FFFFFF;fontFamily=Times New Roman;fontSize=25;" parent="1" vertex="1">
          <mxGeometry x="414" y="566" width="10" height="62" as="geometry" />
        </mxCell>
        <mxCell id="EISd4JiYMSwrplZ_3Wii-15" value="" style="rounded=0;whiteSpace=wrap;html=1;fillColor=#FFFFFF;fontFamily=Times New Roman;fontSize=25;" parent="1" vertex="1">
          <mxGeometry x="370" y="270" width="60" height="40" as="geometry" />
        </mxCell>
        <mxCell id="EISd4JiYMSwrplZ_3Wii-17" value="" style="rounded=0;whiteSpace=wrap;html=1;fillColor=#FFFFFF;fontFamily=Times New Roman;fontSize=25;" parent="1" vertex="1">
          <mxGeometry x="440" y="270" width="60" height="40" as="geometry" />
        </mxCell>
        <mxCell id="EISd4JiYMSwrplZ_3Wii-18" value="" style="rounded=0;whiteSpace=wrap;html=1;fillColor=#FFFFFF;fontFamily=Times New Roman;fontSize=25;" parent="1" vertex="1">
          <mxGeometry x="510" y="270" width="60" height="40" as="geometry" />
        </mxCell>
        <mxCell id="EISd4JiYMSwrplZ_3Wii-58" value="" style="edgeStyle=orthogonalEdgeStyle;rounded=0;orthogonalLoop=1;jettySize=auto;html=1;fontFamily=Times New Roman;fontSize=25;" parent="1" source="EISd4JiYMSwrplZ_3Wii-19" target="EISd4JiYMSwrplZ_3Wii-57" edge="1">
          <mxGeometry relative="1" as="geometry" />
        </mxCell>
        <mxCell id="EISd4JiYMSwrplZ_3Wii-19" value="" style="rounded=0;whiteSpace=wrap;html=1;fillColor=#E6E6E6;fontFamily=Times New Roman;fontSize=25;" parent="1" vertex="1">
          <mxGeometry x="580" y="280" width="60" height="20" as="geometry" />
        </mxCell>
        <mxCell id="EISd4JiYMSwrplZ_3Wii-60" value="" style="edgeStyle=orthogonalEdgeStyle;rounded=0;orthogonalLoop=1;jettySize=auto;html=1;entryX=-0.066;entryY=0.533;entryDx=0;entryDy=0;entryPerimeter=0;fontFamily=Times New Roman;fontSize=25;" parent="1" source="EISd4JiYMSwrplZ_3Wii-57" target="EISd4JiYMSwrplZ_3Wii-32" edge="1">
          <mxGeometry relative="1" as="geometry">
            <mxPoint x="670" y="427" as="targetPoint" />
          </mxGeometry>
        </mxCell>
        <mxCell id="EISd4JiYMSwrplZ_3Wii-57" value="" style="rounded=0;whiteSpace=wrap;html=1;fillColor=#FFFFFF;fontFamily=Times New Roman;fontSize=25;" parent="1" vertex="1">
          <mxGeometry x="580" y="418" width="60" height="20" as="geometry" />
        </mxCell>
        <mxCell id="EISd4JiYMSwrplZ_3Wii-22" value="" style="rounded=0;whiteSpace=wrap;html=1;fillColor=#FFFFFF;fontFamily=Times New Roman;fontSize=25;" parent="1" vertex="1">
          <mxGeometry x="650" y="280" width="60" height="20" as="geometry" />
        </mxCell>
        <mxCell id="EISd4JiYMSwrplZ_3Wii-23" value="" style="rounded=0;whiteSpace=wrap;html=1;fillColor=#FFFFFF;fontFamily=Times New Roman;fontSize=25;" parent="1" vertex="1">
          <mxGeometry x="720" y="280" width="60" height="20" as="geometry" />
        </mxCell>
        <mxCell id="EISd4JiYMSwrplZ_3Wii-24" value="" style="rounded=0;whiteSpace=wrap;html=1;fillColor=#E6E6E6;fontFamily=Times New Roman;fontSize=25;strokeColor=#666666;fontColor=#333333;" parent="1" vertex="1">
          <mxGeometry x="790" y="282.5" width="60" height="15" as="geometry" />
        </mxCell>
        <mxCell id="EISd4JiYMSwrplZ_3Wii-25" value="" style="rounded=0;whiteSpace=wrap;html=1;fillColor=#FFFFFF;fontFamily=Times New Roman;fontSize=25;" parent="1" vertex="1">
          <mxGeometry x="860" y="285" width="140" height="10" as="geometry" />
        </mxCell>
        <mxCell id="EISd4JiYMSwrplZ_3Wii-54" value="" style="edgeStyle=orthogonalEdgeStyle;rounded=0;orthogonalLoop=1;jettySize=auto;html=1;exitX=1;exitY=0.5;exitDx=0;exitDy=0;fontFamily=Times New Roman;fontSize=25;" parent="1" source="EISd4JiYMSwrplZ_3Wii-27" edge="1">
          <mxGeometry relative="1" as="geometry">
            <mxPoint x="640" y="340" as="targetPoint" />
          </mxGeometry>
        </mxCell>
        <mxCell id="EISd4JiYMSwrplZ_3Wii-27" value="" style="rounded=0;whiteSpace=wrap;html=1;fillColor=#FFFFFF;fontFamily=Times New Roman;fontSize=25;" parent="1" vertex="1">
          <mxGeometry x="1010" y="285" width="140" height="10" as="geometry" />
        </mxCell>
        <mxCell id="EISd4JiYMSwrplZ_3Wii-56" value="" style="edgeStyle=orthogonalEdgeStyle;rounded=0;orthogonalLoop=1;jettySize=auto;html=1;entryX=0;entryY=0.5;entryDx=0;entryDy=0;fontFamily=Times New Roman;fontSize=25;" parent="1" source="EISd4JiYMSwrplZ_3Wii-28" target="EISd4JiYMSwrplZ_3Wii-31" edge="1">
          <mxGeometry relative="1" as="geometry">
            <mxPoint x="730" y="350" as="targetPoint" />
          </mxGeometry>
        </mxCell>
        <mxCell id="EISd4JiYMSwrplZ_3Wii-28" value="" style="rounded=0;whiteSpace=wrap;html=1;fillColor=#FFFFFF;fontFamily=Times New Roman;fontSize=25;" parent="1" vertex="1">
          <mxGeometry x="630" y="345" width="20" height="10" as="geometry" />
        </mxCell>
        <mxCell id="EISd4JiYMSwrplZ_3Wii-33" value="" style="edgeStyle=orthogonalEdgeStyle;rounded=0;orthogonalLoop=1;jettySize=auto;html=1;fontFamily=Times New Roman;fontSize=25;" parent="1" source="EISd4JiYMSwrplZ_3Wii-31" target="EISd4JiYMSwrplZ_3Wii-32" edge="1">
          <mxGeometry relative="1" as="geometry" />
        </mxCell>
        <mxCell id="EISd4JiYMSwrplZ_3Wii-31" value="" style="rounded=0;whiteSpace=wrap;html=1;fillColor=#FFFFFF;fontFamily=Times New Roman;fontSize=25;" parent="1" vertex="1">
          <mxGeometry x="675" y="328.5" width="10" height="43" as="geometry" />
        </mxCell>
        <mxCell id="EISd4JiYMSwrplZ_3Wii-35" value="" style="edgeStyle=orthogonalEdgeStyle;rounded=0;orthogonalLoop=1;jettySize=auto;html=1;fontFamily=Times New Roman;fontSize=25;" parent="1" source="EISd4JiYMSwrplZ_3Wii-32" target="EISd4JiYMSwrplZ_3Wii-34" edge="1">
          <mxGeometry relative="1" as="geometry" />
        </mxCell>
        <mxCell id="EISd4JiYMSwrplZ_3Wii-32" value="" style="rounded=0;whiteSpace=wrap;html=1;fillColor=#FFFFFF;fontFamily=Times New Roman;fontSize=25;" parent="1" vertex="1">
          <mxGeometry x="675" y="405" width="10" height="43" as="geometry" />
        </mxCell>
        <mxCell id="EISd4JiYMSwrplZ_3Wii-37" value="" style="edgeStyle=orthogonalEdgeStyle;rounded=0;orthogonalLoop=1;jettySize=auto;html=1;fontFamily=Times New Roman;fontSize=25;" parent="1" source="EISd4JiYMSwrplZ_3Wii-34" target="EISd4JiYMSwrplZ_3Wii-36" edge="1">
          <mxGeometry relative="1" as="geometry" />
        </mxCell>
        <mxCell id="EISd4JiYMSwrplZ_3Wii-34" value="" style="rounded=0;whiteSpace=wrap;html=1;fillColor=#FFFFFF;fontFamily=Times New Roman;fontSize=25;" parent="1" vertex="1">
          <mxGeometry x="765" y="382" width="10" height="90" as="geometry" />
        </mxCell>
        <mxCell id="EISd4JiYMSwrplZ_3Wii-39" value="" style="edgeStyle=orthogonalEdgeStyle;rounded=0;orthogonalLoop=1;jettySize=auto;html=1;fontFamily=Times New Roman;fontSize=25;" parent="1" source="EISd4JiYMSwrplZ_3Wii-36" target="EISd4JiYMSwrplZ_3Wii-38" edge="1">
          <mxGeometry relative="1" as="geometry" />
        </mxCell>
        <mxCell id="EISd4JiYMSwrplZ_3Wii-36" value="" style="rounded=0;whiteSpace=wrap;html=1;fillColor=#FFFFFF;fontFamily=Times New Roman;fontSize=25;" parent="1" vertex="1">
          <mxGeometry x="765" y="552" width="10" height="90" as="geometry" />
        </mxCell>
        <mxCell id="EISd4JiYMSwrplZ_3Wii-42" value="" style="edgeStyle=orthogonalEdgeStyle;rounded=0;orthogonalLoop=1;jettySize=auto;html=1;fontFamily=Times New Roman;fontSize=25;" parent="1" source="EISd4JiYMSwrplZ_3Wii-38" target="EISd4JiYMSwrplZ_3Wii-41" edge="1">
          <mxGeometry relative="1" as="geometry" />
        </mxCell>
        <mxCell id="EISd4JiYMSwrplZ_3Wii-38" value="" style="rounded=0;whiteSpace=wrap;html=1;fillColor=#FFFFFF;fontFamily=Times New Roman;fontSize=25;" parent="1" vertex="1">
          <mxGeometry x="855" y="447" width="10" height="300" as="geometry" />
        </mxCell>
        <mxCell id="EISd4JiYMSwrplZ_3Wii-41" value="" style="rounded=0;whiteSpace=wrap;html=1;fillColor=#333333;fontFamily=Times New Roman;fontSize=25;strokeColor=#333333;" parent="1" vertex="1">
          <mxGeometry x="945" y="467" width="10" height="260" as="geometry" />
        </mxCell>
        <mxCell id="EISd4JiYMSwrplZ_3Wii-61" value="16*16*4096" style="text;html=1;strokeColor=none;fillColor=none;align=center;verticalAlign=middle;whiteSpace=wrap;rounded=0;fontFamily=Times New Roman;fontSize=25;" parent="1" vertex="1">
          <mxGeometry x="1010" y="250" width="130" height="20" as="geometry" />
        </mxCell>
        <mxCell id="EISd4JiYMSwrplZ_3Wii-63" value="22*22*512" style="text;html=1;align=center;verticalAlign=middle;resizable=0;points=[];autosize=1;fontFamily=Times New Roman;fontSize=25;" parent="1" vertex="1">
          <mxGeometry x="772" y="240" width="130" height="40" as="geometry" />
        </mxCell>
        <mxCell id="EISd4JiYMSwrplZ_3Wii-64" value="34*34*21" style="text;html=1;align=center;verticalAlign=middle;resizable=0;points=[];autosize=1;fontFamily=Times New Roman;fontSize=25;" parent="1" vertex="1">
          <mxGeometry x="678" y="320" width="120" height="40" as="geometry" />
        </mxCell>
        <mxCell id="EISd4JiYMSwrplZ_3Wii-65" value="70*70*21" style="text;html=1;align=center;verticalAlign=middle;resizable=0;points=[];autosize=1;fontFamily=Times New Roman;fontSize=25;" parent="1" vertex="1">
          <mxGeometry x="777" y="380" width="120" height="40" as="geometry" />
        </mxCell>
        <mxCell id="EISd4JiYMSwrplZ_3Wii-66" value="&lt;font style=&quot;font-size: 44px;&quot;&gt;conv&lt;/font&gt;" style="text;html=1;align=center;verticalAlign=middle;resizable=0;points=[];autosize=1;fontSize=44;fontFamily=Times New Roman;" parent="1" vertex="1">
          <mxGeometry x="90" y="110" width="100" height="60" as="geometry" />
        </mxCell>
        <mxCell id="EISd4JiYMSwrplZ_3Wii-67" value="&lt;font style=&quot;font-size: 44px;&quot;&gt;pool&lt;/font&gt;" style="text;html=1;align=center;verticalAlign=middle;resizable=0;points=[];autosize=1;fontSize=44;fontFamily=Times New Roman;" parent="1" vertex="1">
          <mxGeometry x="190" y="175" width="90" height="60" as="geometry" />
        </mxCell>
        <mxCell id="zK5FRSOt8R1a8rK1VpA8-49" value="" style="rounded=0;whiteSpace=wrap;html=1;strokeColor=#000000;fillColor=#000000;fontFamily=Times New Roman;fontSize=25;" parent="1" vertex="1">
          <mxGeometry x="40" y="1050" width="10" height="260" as="geometry" />
        </mxCell>
        <mxCell id="zK5FRSOt8R1a8rK1VpA8-50" value="" style="rounded=0;whiteSpace=wrap;html=1;fillColor=#7F00FF;fontFamily=Times New Roman;fontSize=25;" parent="1" vertex="1">
          <mxGeometry x="70" y="1025" width="20" height="310" as="geometry" />
        </mxCell>
        <mxCell id="zK5FRSOt8R1a8rK1VpA8-51" value="" style="rounded=0;whiteSpace=wrap;html=1;fillColor=#7F00FF;fontFamily=Times New Roman;fontSize=25;" parent="1" vertex="1">
          <mxGeometry x="100" y="1025" width="10" height="310" as="geometry" />
        </mxCell>
        <mxCell id="zK5FRSOt8R1a8rK1VpA8-52" value="" style="rounded=0;whiteSpace=wrap;html=1;fillColor=#00CC00;fontFamily=Times New Roman;fontSize=25;" parent="1" vertex="1">
          <mxGeometry x="120" y="1080" width="10" height="170" as="geometry" />
        </mxCell>
        <mxCell id="zK5FRSOt8R1a8rK1VpA8-53" value="" style="rounded=0;whiteSpace=wrap;html=1;fillColor=#7F00FF;fontFamily=Times New Roman;fontSize=25;" parent="1" vertex="1">
          <mxGeometry x="140" y="1080" width="20" height="170" as="geometry" />
        </mxCell>
        <mxCell id="zK5FRSOt8R1a8rK1VpA8-54" value="" style="rounded=0;whiteSpace=wrap;html=1;fillColor=#7F00FF;fontFamily=Times New Roman;fontSize=25;" parent="1" vertex="1">
          <mxGeometry x="170" y="1080" width="20" height="170" as="geometry" />
        </mxCell>
        <mxCell id="zK5FRSOt8R1a8rK1VpA8-55" value="" style="rounded=0;whiteSpace=wrap;html=1;fillColor=#00CC00;fontFamily=Times New Roman;fontSize=25;" parent="1" vertex="1">
          <mxGeometry x="200" y="1110" width="20" height="100" as="geometry" />
        </mxCell>
        <mxCell id="zK5FRSOt8R1a8rK1VpA8-56" value="" style="rounded=0;whiteSpace=wrap;html=1;fillColor=#7F00FF;fontFamily=Times New Roman;fontSize=25;" parent="1" vertex="1">
          <mxGeometry x="230" y="1110" width="30" height="100" as="geometry" />
        </mxCell>
        <mxCell id="zK5FRSOt8R1a8rK1VpA8-57" value="" style="rounded=0;whiteSpace=wrap;html=1;fillColor=#7F00FF;fontFamily=Times New Roman;fontSize=25;" parent="1" vertex="1">
          <mxGeometry x="270" y="1110" width="30" height="100" as="geometry" />
        </mxCell>
        <mxCell id="zK5FRSOt8R1a8rK1VpA8-58" value="" style="rounded=0;whiteSpace=wrap;html=1;fillColor=#7F00FF;fontFamily=Times New Roman;fontSize=25;" parent="1" vertex="1">
          <mxGeometry x="310" y="1110" width="30" height="100" as="geometry" />
        </mxCell>
        <mxCell id="zK5FRSOt8R1a8rK1VpA8-59" value="" style="edgeStyle=orthogonalEdgeStyle;rounded=0;orthogonalLoop=1;jettySize=auto;html=1;exitX=0.5;exitY=1;exitDx=0;exitDy=0;fontFamily=Times New Roman;fontSize=25;" parent="1" source="zK5FRSOt8R1a8rK1VpA8-60" target="zK5FRSOt8R1a8rK1VpA8-62" edge="1">
          <mxGeometry relative="1" as="geometry">
            <mxPoint x="365" y="1195" as="sourcePoint" />
          </mxGeometry>
        </mxCell>
        <mxCell id="zK5FRSOt8R1a8rK1VpA8-60" value="" style="rounded=0;whiteSpace=wrap;html=1;fillColor=#00CC00;fontFamily=Times New Roman;fontSize=25;" parent="1" vertex="1">
          <mxGeometry x="350" y="1140" width="30" height="40" as="geometry" />
        </mxCell>
        <mxCell id="zK5FRSOt8R1a8rK1VpA8-61" value="" style="edgeStyle=orthogonalEdgeStyle;rounded=0;orthogonalLoop=1;jettySize=auto;html=1;entryX=0;entryY=0.5;entryDx=0;entryDy=0;fontFamily=Times New Roman;fontSize=25;" parent="1" source="zK5FRSOt8R1a8rK1VpA8-62" target="zK5FRSOt8R1a8rK1VpA8-64" edge="1">
          <mxGeometry relative="1" as="geometry">
            <mxPoint x="431" y="1462" as="targetPoint" />
          </mxGeometry>
        </mxCell>
        <mxCell id="zK5FRSOt8R1a8rK1VpA8-62" value="" style="rounded=0;whiteSpace=wrap;html=1;fillColor=#7F00FF;fontFamily=Times New Roman;fontSize=25;" parent="1" vertex="1">
          <mxGeometry x="360" y="1427" width="10" height="80" as="geometry" />
        </mxCell>
        <mxCell id="zK5FRSOt8R1a8rK1VpA8-63" value="" style="edgeStyle=orthogonalEdgeStyle;rounded=0;orthogonalLoop=1;jettySize=auto;html=1;fontFamily=Times New Roman;fontSize=25;" parent="1" source="zK5FRSOt8R1a8rK1VpA8-64" target="zK5FRSOt8R1a8rK1VpA8-87" edge="1">
          <mxGeometry relative="1" as="geometry">
            <mxPoint x="460" y="1450" as="targetPoint" />
          </mxGeometry>
        </mxCell>
        <mxCell id="zK5FRSOt8R1a8rK1VpA8-64" value="" style="rounded=0;whiteSpace=wrap;html=1;fillColor=#CC99FF;fontFamily=Times New Roman;fontSize=25;" parent="1" vertex="1">
          <mxGeometry x="434" y="1436" width="10" height="62" as="geometry" />
        </mxCell>
        <mxCell id="zK5FRSOt8R1a8rK1VpA8-65" value="" style="rounded=0;whiteSpace=wrap;html=1;fillColor=#7F00FF;fontFamily=Times New Roman;fontSize=25;" parent="1" vertex="1">
          <mxGeometry x="390" y="1140" width="60" height="40" as="geometry" />
        </mxCell>
        <mxCell id="zK5FRSOt8R1a8rK1VpA8-66" value="" style="rounded=0;whiteSpace=wrap;html=1;fillColor=#7F00FF;fontFamily=Times New Roman;fontSize=25;" parent="1" vertex="1">
          <mxGeometry x="460" y="1140" width="60" height="40" as="geometry" />
        </mxCell>
        <mxCell id="zK5FRSOt8R1a8rK1VpA8-67" value="" style="rounded=0;whiteSpace=wrap;html=1;fillColor=#7F00FF;fontFamily=Times New Roman;fontSize=25;" parent="1" vertex="1">
          <mxGeometry x="530" y="1140" width="60" height="40" as="geometry" />
        </mxCell>
        <mxCell id="zK5FRSOt8R1a8rK1VpA8-68" value="" style="edgeStyle=orthogonalEdgeStyle;rounded=0;orthogonalLoop=1;jettySize=auto;html=1;fontFamily=Times New Roman;fontSize=25;" parent="1" source="zK5FRSOt8R1a8rK1VpA8-69" target="zK5FRSOt8R1a8rK1VpA8-71" edge="1">
          <mxGeometry relative="1" as="geometry" />
        </mxCell>
        <mxCell id="zK5FRSOt8R1a8rK1VpA8-69" value="" style="rounded=0;whiteSpace=wrap;html=1;fillColor=#00CC00;fontFamily=Times New Roman;fontSize=25;" parent="1" vertex="1">
          <mxGeometry x="600" y="1150" width="60" height="20" as="geometry" />
        </mxCell>
        <mxCell id="zK5FRSOt8R1a8rK1VpA8-70" value="" style="edgeStyle=orthogonalEdgeStyle;rounded=0;orthogonalLoop=1;jettySize=auto;html=1;entryX=-0.066;entryY=0.533;entryDx=0;entryDy=0;entryPerimeter=0;fontFamily=Times New Roman;fontSize=25;" parent="1" source="zK5FRSOt8R1a8rK1VpA8-71" target="zK5FRSOt8R1a8rK1VpA8-83" edge="1">
          <mxGeometry relative="1" as="geometry">
            <mxPoint x="690" y="1297" as="targetPoint" />
          </mxGeometry>
        </mxCell>
        <mxCell id="zK5FRSOt8R1a8rK1VpA8-71" value="" style="rounded=0;whiteSpace=wrap;html=1;fillColor=#7F00FF;fontFamily=Times New Roman;fontSize=25;" parent="1" vertex="1">
          <mxGeometry x="600" y="1288" width="60" height="20" as="geometry" />
        </mxCell>
        <mxCell id="zK5FRSOt8R1a8rK1VpA8-72" value="" style="rounded=0;whiteSpace=wrap;html=1;fillColor=#7F00FF;fontFamily=Times New Roman;fontSize=25;" parent="1" vertex="1">
          <mxGeometry x="670" y="1150" width="60" height="20" as="geometry" />
        </mxCell>
        <mxCell id="zK5FRSOt8R1a8rK1VpA8-73" value="" style="rounded=0;whiteSpace=wrap;html=1;fillColor=#7F00FF;fontFamily=Times New Roman;fontSize=25;" parent="1" vertex="1">
          <mxGeometry x="740" y="1150" width="60" height="20" as="geometry" />
        </mxCell>
        <mxCell id="zK5FRSOt8R1a8rK1VpA8-74" value="" style="rounded=0;whiteSpace=wrap;html=1;fillColor=#00CC00;fontFamily=Times New Roman;fontSize=25;" parent="1" vertex="1">
          <mxGeometry x="810" y="1152.5" width="60" height="15" as="geometry" />
        </mxCell>
        <mxCell id="zK5FRSOt8R1a8rK1VpA8-75" value="" style="rounded=0;whiteSpace=wrap;html=1;fillColor=#7F00FF;fontFamily=Times New Roman;fontSize=25;" parent="1" vertex="1">
          <mxGeometry x="880" y="1155" width="140" height="10" as="geometry" />
        </mxCell>
        <mxCell id="zK5FRSOt8R1a8rK1VpA8-76" value="" style="edgeStyle=orthogonalEdgeStyle;rounded=0;orthogonalLoop=1;jettySize=auto;html=1;exitX=1;exitY=0.5;exitDx=0;exitDy=0;fontFamily=Times New Roman;fontSize=25;" parent="1" source="zK5FRSOt8R1a8rK1VpA8-77" edge="1">
          <mxGeometry relative="1" as="geometry">
            <mxPoint x="660" y="1210" as="targetPoint" />
          </mxGeometry>
        </mxCell>
        <mxCell id="zK5FRSOt8R1a8rK1VpA8-77" value="" style="rounded=0;whiteSpace=wrap;html=1;fillColor=#7F00FF;fontFamily=Times New Roman;fontSize=25;" parent="1" vertex="1">
          <mxGeometry x="1030" y="1155" width="140" height="10" as="geometry" />
        </mxCell>
        <mxCell id="zK5FRSOt8R1a8rK1VpA8-78" value="" style="edgeStyle=orthogonalEdgeStyle;rounded=0;orthogonalLoop=1;jettySize=auto;html=1;entryX=0;entryY=0.5;entryDx=0;entryDy=0;fontFamily=Times New Roman;fontSize=25;" parent="1" source="zK5FRSOt8R1a8rK1VpA8-79" target="zK5FRSOt8R1a8rK1VpA8-81" edge="1">
          <mxGeometry relative="1" as="geometry">
            <mxPoint x="750" y="1220" as="targetPoint" />
          </mxGeometry>
        </mxCell>
        <mxCell id="zK5FRSOt8R1a8rK1VpA8-79" value="" style="rounded=0;whiteSpace=wrap;html=1;fillColor=#7F00FF;fontFamily=Times New Roman;fontSize=25;" parent="1" vertex="1">
          <mxGeometry x="650" y="1215" width="20" height="10" as="geometry" />
        </mxCell>
        <mxCell id="zK5FRSOt8R1a8rK1VpA8-80" value="" style="edgeStyle=orthogonalEdgeStyle;rounded=0;orthogonalLoop=1;jettySize=auto;html=1;fontFamily=Times New Roman;fontSize=25;" parent="1" source="zK5FRSOt8R1a8rK1VpA8-81" target="zK5FRSOt8R1a8rK1VpA8-83" edge="1">
          <mxGeometry relative="1" as="geometry" />
        </mxCell>
        <mxCell id="zK5FRSOt8R1a8rK1VpA8-81" value="" style="rounded=0;whiteSpace=wrap;html=1;fillColor=#FF8000;fontFamily=Times New Roman;fontSize=25;" parent="1" vertex="1">
          <mxGeometry x="695" y="1198.5" width="10" height="43" as="geometry" />
        </mxCell>
        <mxCell id="zK5FRSOt8R1a8rK1VpA8-82" value="" style="edgeStyle=orthogonalEdgeStyle;rounded=0;orthogonalLoop=1;jettySize=auto;html=1;fontFamily=Times New Roman;fontSize=25;" parent="1" source="zK5FRSOt8R1a8rK1VpA8-83" target="zK5FRSOt8R1a8rK1VpA8-85" edge="1">
          <mxGeometry relative="1" as="geometry" />
        </mxCell>
        <mxCell id="zK5FRSOt8R1a8rK1VpA8-83" value="" style="rounded=0;whiteSpace=wrap;html=1;fillColor=#FF0080;fontFamily=Times New Roman;fontSize=25;" parent="1" vertex="1">
          <mxGeometry x="695" y="1275" width="10" height="43" as="geometry" />
        </mxCell>
        <mxCell id="zK5FRSOt8R1a8rK1VpA8-84" value="" style="edgeStyle=orthogonalEdgeStyle;rounded=0;orthogonalLoop=1;jettySize=auto;html=1;fontFamily=Times New Roman;fontSize=25;" parent="1" source="zK5FRSOt8R1a8rK1VpA8-85" target="zK5FRSOt8R1a8rK1VpA8-87" edge="1">
          <mxGeometry relative="1" as="geometry" />
        </mxCell>
        <mxCell id="zK5FRSOt8R1a8rK1VpA8-85" value="" style="rounded=0;whiteSpace=wrap;html=1;fillColor=#FF8000;fontFamily=Times New Roman;fontSize=25;" parent="1" vertex="1">
          <mxGeometry x="785" y="1252" width="10" height="90" as="geometry" />
        </mxCell>
        <mxCell id="zK5FRSOt8R1a8rK1VpA8-86" value="" style="edgeStyle=orthogonalEdgeStyle;rounded=0;orthogonalLoop=1;jettySize=auto;html=1;fontFamily=Times New Roman;fontSize=25;" parent="1" source="zK5FRSOt8R1a8rK1VpA8-87" target="zK5FRSOt8R1a8rK1VpA8-89" edge="1">
          <mxGeometry relative="1" as="geometry" />
        </mxCell>
        <mxCell id="zK5FRSOt8R1a8rK1VpA8-87" value="" style="rounded=0;whiteSpace=wrap;html=1;fillColor=#FF0080;fontFamily=Times New Roman;fontSize=25;" parent="1" vertex="1">
          <mxGeometry x="785" y="1422" width="10" height="90" as="geometry" />
        </mxCell>
        <mxCell id="zK5FRSOt8R1a8rK1VpA8-88" value="" style="edgeStyle=orthogonalEdgeStyle;rounded=0;orthogonalLoop=1;jettySize=auto;html=1;fontFamily=Times New Roman;fontSize=25;" parent="1" source="zK5FRSOt8R1a8rK1VpA8-89" target="zK5FRSOt8R1a8rK1VpA8-90" edge="1">
          <mxGeometry relative="1" as="geometry" />
        </mxCell>
        <mxCell id="zK5FRSOt8R1a8rK1VpA8-89" value="" style="rounded=0;whiteSpace=wrap;html=1;fillColor=#FF8000;fontFamily=Times New Roman;fontSize=25;" parent="1" vertex="1">
          <mxGeometry x="875" y="1317" width="10" height="300" as="geometry" />
        </mxCell>
        <mxCell id="zK5FRSOt8R1a8rK1VpA8-90" value="" style="rounded=0;whiteSpace=wrap;html=1;fillColor=#CC99FF;fontFamily=Times New Roman;fontSize=25;" parent="1" vertex="1">
          <mxGeometry x="965" y="1337" width="10" height="260" as="geometry" />
        </mxCell>
        <mxCell id="zK5FRSOt8R1a8rK1VpA8-91" value="16*16*4096" style="text;html=1;strokeColor=none;fillColor=none;align=center;verticalAlign=middle;whiteSpace=wrap;rounded=0;fontFamily=Times New Roman;fontSize=25;" parent="1" vertex="1">
          <mxGeometry x="1030" y="1120" width="130" height="20" as="geometry" />
        </mxCell>
        <mxCell id="zK5FRSOt8R1a8rK1VpA8-92" value="22*22*512" style="text;html=1;align=center;verticalAlign=middle;resizable=0;points=[];autosize=1;fontFamily=Times New Roman;fontSize=25;" parent="1" vertex="1">
          <mxGeometry x="792" y="1110" width="130" height="40" as="geometry" />
        </mxCell>
        <mxCell id="zK5FRSOt8R1a8rK1VpA8-93" value="34*34*21" style="text;html=1;align=center;verticalAlign=middle;resizable=0;points=[];autosize=1;fontFamily=Times New Roman;fontSize=25;" parent="1" vertex="1">
          <mxGeometry x="698" y="1190" width="120" height="40" as="geometry" />
        </mxCell>
        <mxCell id="zK5FRSOt8R1a8rK1VpA8-94" value="70*70*21" style="text;html=1;align=center;verticalAlign=middle;resizable=0;points=[];autosize=1;fontFamily=Times New Roman;fontSize=25;" parent="1" vertex="1">
          <mxGeometry x="797" y="1250" width="120" height="40" as="geometry" />
        </mxCell>
        <mxCell id="zK5FRSOt8R1a8rK1VpA8-95" value="&lt;font color=&quot;#7f00ff&quot; style=&quot;font-size: 56px;&quot;&gt;conv&lt;/font&gt;" style="text;html=1;align=center;verticalAlign=middle;resizable=0;points=[];autosize=1;fontSize=56;fontFamily=Times New Roman;" parent="1" vertex="1">
          <mxGeometry x="110" y="970" width="130" height="70" as="geometry" />
        </mxCell>
        <mxCell id="zK5FRSOt8R1a8rK1VpA8-96" value="&lt;font color=&quot;#00ff00&quot; style=&quot;font-size: 56px;&quot;&gt;pool&lt;/font&gt;" style="text;html=1;align=center;verticalAlign=middle;resizable=0;points=[];autosize=1;fontSize=56;fontFamily=Times New Roman;" parent="1" vertex="1">
          <mxGeometry x="200" y="1040" width="110" height="70" as="geometry" />
        </mxCell>
        <mxCell id="Fv7Yc3ZI3IKI5vTECBDW-2" value="原图" style="text;html=1;align=center;verticalAlign=middle;resizable=0;points=[];autosize=1;fontSize=31;" vertex="1" parent="1">
          <mxGeometry x="-40" y="448" width="80" height="40" as="geometry" />
        </mxCell>
        <mxCell id="Fv7Yc3ZI3IKI5vTECBDW-3" value="结果" style="text;html=1;align=center;verticalAlign=middle;resizable=0;points=[];autosize=1;fontSize=31;" vertex="1" parent="1">
          <mxGeometry x="965" y="577" width="80" height="40" as="geometry" />
        </mxCell>
      </root>
    </mxGraphModel>
  </diagram>
</mxfile>
